Coordinates
nRows=12
nColumns=24

# SIMM Motion File Header:
name Coordinates
datacolumns 24
datarows 12
otherdata 1
range 0.28466999999999998000 0.29566999999999999000
endheader
time	pelvis_tx	pelvis_ty	pelvis_tz	pelvis_tilt	pelvis_list	pelvis_rotation	hip_flexion_r	hip_adduction_r	hip_rotation_r	knee_angle_r	ankle_angle_r	subtalar_angle_r	mtp_angle_r	hip_flexion_l	hip_adduction_l	hip_rotation_l	knee_angle_l	ankle_angle_l	subtalar_angle_l	mtp_angle_l	lumbar_extension	lumbar_bending	lumbar_rotation
      0.28466999999999998000	      0.95216446455260562000	      0.87578928783842647000	     -0.28244544825345058000	     -4.31247175720133050000	      4.42284579539054870000	      1.83898350238490500000	     31.80372775695013100000	     -9.57137392116370480000	     -9.48826205672733460000	    -24.87818140374281500000	     -2.11931914278883630000	     -0.00000000000000448617	      0.00000000000002215186	    -10.30370900846080700000	      4.40615136011621100000	      1.96657693073823040000	     -6.41843623629103990000	     10.15836161161148100000	      0.00000000000003351326	     -0.00000000000006291898	    -10.44836949183379300000	     -0.29623451837717840000	     -1.05961152503674790000
      0.28566999999999998000	      0.95430302712831916000	      0.87563666138476437000	     -0.28234946298593278000	     -4.28759923478495430000	      4.40204402863660520000	      1.90468323540225400000	     31.74796987323651000000	     -9.54035921302774170000	     -9.53307624043105580000	    -24.46237863586380700000	     -2.22279440164813250000	     -0.00000000000000448532	      0.00000000000002219382	    -10.45053016065946300000	      4.35848923638462970000	      1.99122003948987230000	     -6.47399779241866740000	     10.13738712733728600000	      0.00000000000003384945	     -0.00000000000006358203	    -10.46016727902046000000	     -0.27645546870006804000	     -1.08384151097733520000
      0.28666999999999998000	      0.95644455398044814000	      0.87548454837290757000	     -0.28225240724319084000	     -4.26223236897309210000	      4.38101515855187620000	      1.97062206770460200000	     31.69055735158503500000	     -9.50912425363390130000	     -9.57869566164339050000	    -24.04788103140690900000	     -2.32524978823865780000	     -0.00000000000000448418	      0.00000000000002223744	    -10.59689329966771600000	      4.31028691851408310000	      2.01586840786965430000	     -6.53150463869718130000	     10.11489793558401800000	      0.00000000000003418079	     -0.00000000000006422887	    -10.47188772820016400000	     -0.25674673433959155000	     -1.10724507841282920000
      0.28766999999999998000	      0.95859619739162172000	      0.87533391520728321000	     -0.28215186256500641000	     -4.23554439530929190000	      4.35933837865913800000	      2.03720873021073730000	     31.62814116192944500000	     -9.47723004707454560000	     -9.62679113672229470000	    -23.63843552263501700000	     -2.42436959373285000000	     -0.00000000000000446914	      0.00000000000002225177	    -10.74112214143543800000	      4.26043656580798210000	      2.04029746731863160000	     -6.59598479646040750000	     10.08884939989885200000	      0.00000000000003447979	     -0.00000000000006483233	    -10.48291211864419700000	     -0.23737997820137222000	     -1.12773957796714310000
      0.28866999999999998000	      0.96074928602551590000	      0.87518349344826341000	     -0.28205081946747301000	     -4.20866769195235690000	      4.33756904022239900000	      2.10388793988884220000	     31.56501016255898100000	     -9.44524166234868720000	     -9.67524033378213840000	    -23.22971174181812900000	     -2.52301288764185070000	     -0.00000000000000445213	      0.00000000000002226192	    -10.88504608359737200000	      4.21035077955394410000	      2.06469519692035110000	     -6.66146114157859340000	     10.06229238650912800000	      0.00000000000003477416	     -0.00000000000006542959	    -10.49383707212599100000	     -0.21806207609490397000	     -1.14781849639557350000
      0.28966999999999998000	      0.96290895317548597000	      0.87503382436576282000	     -0.28194780200888714000	     -4.18121525251834750000	      4.31543483312908550000	      2.17104597709549060000	     31.49905714872489400000	     -9.41295086898341180000	     -9.72514704029145170000	    -22.82481440259394000000	     -2.61928269524877640000	     -0.00000000000000442379	      0.00000000000002225401	    -11.02705315854918300000	      4.15926810428327530000	      2.08895270827381200000	     -6.73190774352061720000	     10.03474262540238500000	      0.00000000000003505876	     -0.00000000000006605234	    -10.50397053329395900000	     -0.19897619800942765000	     -1.16613235722277150000
      0.29066999999999998000	      0.96507519884153203000	      0.87488490795978135000	     -0.28184281018924867000	     -4.15318707700726190000	      4.29293575737919750000	      2.23868284183068140000	     31.43028212042718600000	     -9.38035766697871590000	     -9.77651125625023630000	    -22.42374350496244900000	     -2.71317901655362850000	     -0.00000000000000438414	      0.00000000000002222805	    -11.16714336629087300000	      4.10718853999597580000	      2.11307000137901380000	     -6.80732460228647530000	     10.00620011657862400000	      0.00000000000003533357	     -0.00000000000006670059	    -10.51331250214810400000	     -0.18012234394494317000	     -1.18268116044873820000
      0.29166999999999998000	      0.96724144450757821000	      0.87473599155379989000	     -0.28173781836961026000	     -4.12515890149617630000	      4.27043668162931040000	      2.30631970656587320000	     31.36150709212947900000	     -9.34776446497401990000	     -9.82787547220902090000	    -22.02267260733096100000	     -2.80707533785847830000	     -0.00000000000000434449	      0.00000000000002220208	    -11.30723357403256000000	      4.05510897570867450000	      2.13718729448421560000	     -6.88274146105233790000	      9.97765760775486220000	      0.00000000000003560838	     -0.00000000000006734883	    -10.52265447100224600000	     -0.16126848988045872000	     -1.19922996367470350000
      0.29266999999999999000	      0.96942101747732135000	      0.87458838620212387000	     -0.28163007107522670000	     -4.09651187189448330000	      4.24712632741343740000	      2.37554836786658140000	     31.28768132360917800000	     -9.31491884930103710000	     -9.88221322281033210000	    -21.63049045349496100000	     -2.89547294659052000000	     -0.00000000000000429524	      0.00000000000002217293	    -11.44227129430424100000	      4.00085385064327340000	      2.16125967102564150000	     -6.96921717985713050000	      9.94800416340886430000	      0.00000000000003588793	     -0.00000000000006795998	    -10.52973051554992200000	     -0.14258283196811025000	     -1.21301104195948590000
      0.29366999999999999000	      0.97160059044706459000	      0.87444078085044774000	     -0.28152232378084308000	     -4.06786484229278940000	      4.22381597319756530000	      2.44477702916729010000	     31.21385555508888000000	     -9.28207323362805430000	     -9.93655097341164510000	    -21.23830829965896100000	     -2.98387055532256170000	     -0.00000000000000424599	      0.00000000000002214377	    -11.57730901457592400000	      3.94659872557787270000	      2.18533204756706790000	     -7.05569289866192320000	      9.91835071906286640000	      0.00000000000003616748	     -0.00000000000006857112	    -10.53680656009759700000	     -0.12389717405576177000	     -1.22679212024426840000
      0.29466999999999999000	      0.97378681118565813000	      0.87429386096341077000	     -0.28141357344427154000	     -4.03904293069362200000	      4.20002592113191580000	      2.51487142498089300000	     31.13775121087037000000	     -9.24911073281249330000	     -9.99215246331170270000	    -20.85101416767004100000	     -3.06941718182276490000	     -0.00000000000000418813	      0.00000000000002210624	    -11.70954044869672500000	      3.89116268517910680000	      2.20911339224199250000	     -7.14783835040686810000	      9.88792638714101630000	      0.00000000000003643624	     -0.00000000000006913336	    -10.54259168381000400000	     -0.10512157485114226000	     -1.23939127263533640000
      0.29566999999999999000	      0.97597967969310218000	      0.87414762654101319000	     -0.28130382006551208000	     -4.01004613709698180000	      4.17575617121649150000	      2.58583155530738700000	     31.05936829095365300000	     -9.21603134685435420000	    -10.04901769251050300000	    -20.46860805752819000000	     -3.15211282609113660000	     -0.00000000000000412167	      0.00000000000002206033	    -11.83896559666665200000	      3.83454572944697820000	      2.23260370505041640000	     -7.24565353509195020000	      9.85673116764331250000	      0.00000000000003669422	     -0.00000000000006964669	    -10.54708588668714400000	     -0.08625603435425197000	     -1.25080849913269310000
